<mxfile host="app.diagrams.net" modified="2023-11-16T11:05:23.188Z" agent="Mozilla/5.0 (Windows NT 10.0; Win64; x64) AppleWebKit/537.36 (KHTML, like Gecko) Chrome/116.0.5845.931 YaBrowser/23.9.3.931 Yowser/2.5 Safari/537.36" etag="bed8rQjo6Ma1JL3-rhsS" version="22.1.2" type="github">
  <diagram name="Страница 1" id="gBjmYybh71Cnq9_z_HG5">
    <mxGraphModel dx="1336" dy="1925" grid="1" gridSize="10" guides="1" tooltips="1" connect="1" arrows="1" fold="1" page="1" pageScale="1" pageWidth="827" pageHeight="1169" math="0" shadow="0">
      <root>
        <mxCell id="0" />
        <mxCell id="1" parent="0" />
        <mxCell id="T3s7gQj7L6qWZvvFqli_-1" value="Арендодатель" style="shape=umlActor;verticalLabelPosition=bottom;verticalAlign=top;html=1;outlineConnect=0;" vertex="1" parent="1">
          <mxGeometry x="340" y="70" width="30" height="60" as="geometry" />
        </mxCell>
        <mxCell id="T3s7gQj7L6qWZvvFqli_-3" value="Сохранение квартиры в бд" style="ellipse;whiteSpace=wrap;html=1;" vertex="1" parent="1">
          <mxGeometry x="70" y="360" width="120" height="80" as="geometry" />
        </mxCell>
        <mxCell id="T3s7gQj7L6qWZvvFqli_-4" value="Клиент&lt;br&gt;" style="shape=umlActor;verticalLabelPosition=bottom;verticalAlign=top;html=1;outlineConnect=0;" vertex="1" parent="1">
          <mxGeometry x="680" y="255" width="30" height="60" as="geometry" />
        </mxCell>
        <mxCell id="T3s7gQj7L6qWZvvFqli_-5" value="Сотрудник&lt;br&gt;" style="shape=umlActor;verticalLabelPosition=bottom;verticalAlign=top;html=1;outlineConnect=0;" vertex="1" parent="1">
          <mxGeometry x="150" y="490" width="30" height="60" as="geometry" />
        </mxCell>
        <mxCell id="T3s7gQj7L6qWZvvFqli_-9" value="Заключение договора" style="ellipse;whiteSpace=wrap;html=1;" vertex="1" parent="1">
          <mxGeometry x="270" y="270" width="120" height="80" as="geometry" />
        </mxCell>
        <mxCell id="T3s7gQj7L6qWZvvFqli_-10" value="Предоставление информации о квартире" style="ellipse;whiteSpace=wrap;html=1;" vertex="1" parent="1">
          <mxGeometry x="140" y="130" width="120" height="80" as="geometry" />
        </mxCell>
        <mxCell id="T3s7gQj7L6qWZvvFqli_-11" value="Оплата аренды квартиры" style="ellipse;whiteSpace=wrap;html=1;" vertex="1" parent="1">
          <mxGeometry x="430" y="160" width="120" height="80" as="geometry" />
        </mxCell>
        <mxCell id="T3s7gQj7L6qWZvvFqli_-12" value="Аутентифицировать клиента" style="ellipse;whiteSpace=wrap;html=1;" vertex="1" parent="1">
          <mxGeometry x="630" y="-20" width="120" height="80" as="geometry" />
        </mxCell>
        <mxCell id="T3s7gQj7L6qWZvvFqli_-13" value="" style="endArrow=none;dashed=1;html=1;rounded=0;exitX=0.984;exitY=0.255;exitDx=0;exitDy=0;exitPerimeter=0;entryX=0.05;entryY=0.802;entryDx=0;entryDy=0;entryPerimeter=0;" edge="1" parent="1" source="T3s7gQj7L6qWZvvFqli_-11" target="T3s7gQj7L6qWZvvFqli_-12">
          <mxGeometry width="50" height="50" relative="1" as="geometry">
            <mxPoint x="400" y="140" as="sourcePoint" />
            <mxPoint x="450" y="90" as="targetPoint" />
          </mxGeometry>
        </mxCell>
        <mxCell id="T3s7gQj7L6qWZvvFqli_-17" value="" style="endArrow=none;html=1;rounded=0;" edge="1" parent="1">
          <mxGeometry width="50" height="50" relative="1" as="geometry">
            <mxPoint x="550" y="155" as="sourcePoint" />
            <mxPoint x="570" y="185" as="targetPoint" />
            <Array as="points">
              <mxPoint x="540" y="175" />
            </Array>
          </mxGeometry>
        </mxCell>
        <mxCell id="T3s7gQj7L6qWZvvFqli_-18" value="" style="endArrow=classic;html=1;rounded=0;exitX=0.75;exitY=0.1;exitDx=0;exitDy=0;exitPerimeter=0;entryX=0.5;entryY=1;entryDx=0;entryDy=0;" edge="1" parent="1" source="T3s7gQj7L6qWZvvFqli_-5" target="T3s7gQj7L6qWZvvFqli_-3">
          <mxGeometry width="50" height="50" relative="1" as="geometry">
            <mxPoint x="390" y="470" as="sourcePoint" />
            <mxPoint x="440" y="420" as="targetPoint" />
            <Array as="points" />
          </mxGeometry>
        </mxCell>
        <mxCell id="T3s7gQj7L6qWZvvFqli_-19" value="" style="endArrow=classic;html=1;rounded=0;exitX=0;exitY=1;exitDx=0;exitDy=0;exitPerimeter=0;entryX=1;entryY=0.5;entryDx=0;entryDy=0;" edge="1" parent="1" source="T3s7gQj7L6qWZvvFqli_-1" target="T3s7gQj7L6qWZvvFqli_-10">
          <mxGeometry width="50" height="50" relative="1" as="geometry">
            <mxPoint x="390" y="370" as="sourcePoint" />
            <mxPoint x="440" y="320" as="targetPoint" />
          </mxGeometry>
        </mxCell>
        <mxCell id="T3s7gQj7L6qWZvvFqli_-20" value="" style="endArrow=classic;html=1;rounded=0;exitX=0.26;exitY=0.942;exitDx=0;exitDy=0;entryX=0.683;entryY=-0.055;entryDx=0;entryDy=0;entryPerimeter=0;exitPerimeter=0;" edge="1" parent="1" source="T3s7gQj7L6qWZvvFqli_-10" target="T3s7gQj7L6qWZvvFqli_-3">
          <mxGeometry width="50" height="50" relative="1" as="geometry">
            <mxPoint x="200" y="340" as="sourcePoint" />
            <mxPoint x="280" y="460" as="targetPoint" />
            <Array as="points" />
          </mxGeometry>
        </mxCell>
        <mxCell id="T3s7gQj7L6qWZvvFqli_-21" value="" style="endArrow=classic;html=1;rounded=0;exitX=1;exitY=1;exitDx=0;exitDy=0;exitPerimeter=0;entryX=0.656;entryY=0.012;entryDx=0;entryDy=0;entryPerimeter=0;" edge="1" parent="1" source="T3s7gQj7L6qWZvvFqli_-1" target="T3s7gQj7L6qWZvvFqli_-9">
          <mxGeometry width="50" height="50" relative="1" as="geometry">
            <mxPoint x="500" y="220" as="sourcePoint" />
            <mxPoint x="550" y="170" as="targetPoint" />
          </mxGeometry>
        </mxCell>
        <mxCell id="T3s7gQj7L6qWZvvFqli_-22" value="" style="endArrow=classic;html=1;rounded=0;exitX=1;exitY=0.3333333333333333;exitDx=0;exitDy=0;exitPerimeter=0;entryX=0.25;entryY=1;entryDx=0;entryDy=0;entryPerimeter=0;" edge="1" parent="1" source="T3s7gQj7L6qWZvvFqli_-5" target="T3s7gQj7L6qWZvvFqli_-9">
          <mxGeometry width="50" height="50" relative="1" as="geometry">
            <mxPoint x="240" y="450" as="sourcePoint" />
            <mxPoint x="290" y="400" as="targetPoint" />
          </mxGeometry>
        </mxCell>
        <mxCell id="T3s7gQj7L6qWZvvFqli_-23" value="" style="endArrow=classic;html=1;rounded=0;entryX=1;entryY=1;entryDx=0;entryDy=0;" edge="1" parent="1" target="T3s7gQj7L6qWZvvFqli_-11">
          <mxGeometry width="50" height="50" relative="1" as="geometry">
            <mxPoint x="670" y="290" as="sourcePoint" />
            <mxPoint x="610" y="260" as="targetPoint" />
          </mxGeometry>
        </mxCell>
        <mxCell id="T3s7gQj7L6qWZvvFqli_-24" value="include" style="text;html=1;strokeColor=none;fillColor=none;align=center;verticalAlign=middle;whiteSpace=wrap;rounded=0;" vertex="1" parent="1">
          <mxGeometry x="610" y="100" width="60" height="30" as="geometry" />
        </mxCell>
        <mxCell id="T3s7gQj7L6qWZvvFqli_-25" value="" style="endArrow=none;dashed=1;html=1;rounded=0;exitX=0;exitY=0;exitDx=0;exitDy=0;entryX=1;entryY=1;entryDx=0;entryDy=0;" edge="1" parent="1" source="T3s7gQj7L6qWZvvFqli_-9" target="T3s7gQj7L6qWZvvFqli_-10">
          <mxGeometry width="50" height="50" relative="1" as="geometry">
            <mxPoint x="230" y="266" as="sourcePoint" />
            <mxPoint x="308" y="230" as="targetPoint" />
          </mxGeometry>
        </mxCell>
        <mxCell id="T3s7gQj7L6qWZvvFqli_-26" value="" style="endArrow=none;html=1;rounded=0;" edge="1" parent="1">
          <mxGeometry width="50" height="50" relative="1" as="geometry">
            <mxPoint x="260" y="280" as="sourcePoint" />
            <mxPoint x="310" y="260" as="targetPoint" />
            <Array as="points">
              <mxPoint x="260" y="280" />
              <mxPoint x="290" y="280" />
            </Array>
          </mxGeometry>
        </mxCell>
        <mxCell id="T3s7gQj7L6qWZvvFqli_-27" value="include" style="text;html=1;strokeColor=none;fillColor=none;align=center;verticalAlign=middle;whiteSpace=wrap;rounded=0;" vertex="1" parent="1">
          <mxGeometry x="260" y="200" width="60" height="30" as="geometry" />
        </mxCell>
        <mxCell id="T3s7gQj7L6qWZvvFqli_-28" value="Сохранение пользователя с арендованной квартирой в бд" style="ellipse;whiteSpace=wrap;html=1;" vertex="1" parent="1">
          <mxGeometry x="414" y="30" width="120" height="80" as="geometry" />
        </mxCell>
        <mxCell id="T3s7gQj7L6qWZvvFqli_-29" value="" style="endArrow=classic;html=1;rounded=0;exitX=0.5;exitY=0;exitDx=0;exitDy=0;entryX=0.366;entryY=1.035;entryDx=0;entryDy=0;entryPerimeter=0;" edge="1" parent="1" source="T3s7gQj7L6qWZvvFqli_-11" target="T3s7gQj7L6qWZvvFqli_-28">
          <mxGeometry width="50" height="50" relative="1" as="geometry">
            <mxPoint x="490" y="470" as="sourcePoint" />
            <mxPoint x="540" y="420" as="targetPoint" />
          </mxGeometry>
        </mxCell>
        <mxCell id="T3s7gQj7L6qWZvvFqli_-30" value="Информационная система" style="shape=umlActor;verticalLabelPosition=bottom;verticalAlign=top;html=1;outlineConnect=0;" vertex="1" parent="1">
          <mxGeometry x="90" y="-90" width="30" height="60" as="geometry" />
        </mxCell>
        <mxCell id="T3s7gQj7L6qWZvvFqli_-31" value="" style="endArrow=classic;html=1;rounded=0;entryX=0;entryY=0.5;entryDx=0;entryDy=0;" edge="1" parent="1" source="T3s7gQj7L6qWZvvFqli_-30" target="T3s7gQj7L6qWZvvFqli_-28">
          <mxGeometry width="50" height="50" relative="1" as="geometry">
            <mxPoint x="620" y="300" as="sourcePoint" />
            <mxPoint x="670" y="250" as="targetPoint" />
          </mxGeometry>
        </mxCell>
        <mxCell id="T3s7gQj7L6qWZvvFqli_-35" value="" style="endArrow=classic;html=1;rounded=0;entryX=0.328;entryY=-0.052;entryDx=0;entryDy=0;entryPerimeter=0;" edge="1" parent="1" target="T3s7gQj7L6qWZvvFqli_-3">
          <mxGeometry width="50" height="50" relative="1" as="geometry">
            <mxPoint x="100" y="10" as="sourcePoint" />
            <mxPoint x="70" y="180" as="targetPoint" />
          </mxGeometry>
        </mxCell>
        <mxCell id="T3s7gQj7L6qWZvvFqli_-36" value="" style="endArrow=classic;html=1;rounded=0;entryX=0;entryY=0.5;entryDx=0;entryDy=0;" edge="1" parent="1" target="T3s7gQj7L6qWZvvFqli_-12">
          <mxGeometry width="50" height="50" relative="1" as="geometry">
            <mxPoint x="130" y="-60" as="sourcePoint" />
            <mxPoint x="350" y="-150" as="targetPoint" />
          </mxGeometry>
        </mxCell>
      </root>
    </mxGraphModel>
  </diagram>
</mxfile>
